<svg width="200" height="60" viewBox="0 0 200 60" fill="none" xmlns="http://www.w3.org/2000/svg">
  <path d="M30 12C19.5066 12 11 20.5066 11 31C11 41.4934 19.5066 50 30 50C40.4934 50 49 41.4934 49 31C49 20.5066 40.4934 12 30 12Z" fill="#FF4757"/>
  <path d="M30 18L24 30H36L30 42" stroke="white" stroke-width="3" stroke-linecap="round" stroke-linejoin="round"/>
  <path d="M65.5 22.5H60V37.5H65.5C70.5 37.5 73.5 34.5 73.5 30C73.5 25.5 70.5 22.5 65.5 22.5ZM65.5 34.5H63V25.5H65.5C68.5 25.5 70.5 27 70.5 30C70.5 33 68.5 34.5 65.5 34.5Z" fill="#333333"/>
  <path d="M83 22.5H76V37.5H79V32.5H83C86.5 32.5 89 30.5 89 27.5C89 24.5 86.5 22.5 83 22.5ZM83 29.5H79V25.5H83C84.5 25.5 86 26 86 27.5C86 29 84.5 29.5 83 29.5Z" fill="#333333"/>
  <path d="M98 22.5H91V37.5H98C103 37.5 106 34.5 106 30C106 25.5 103 22.5 98 22.5ZM98 34.5H94V25.5H98C101 25.5 103 27 103 30C103 33 101 34.5 98 34.5Z" fill="#333333"/>
  <path d="M116 22.5H107V37.5H110V32.5H116V29.5H110V25.5H116V22.5Z" fill="#333333"/>
  <path d="M126 22.5H117V37.5H126V34.5H120V31.5H125V28.5H120V25.5H126V22.5Z" fill="#333333"/>
  <path d="M136 22.5H127V37.5H130V31.5H136V28.5H130V25.5H136V22.5Z" fill="#333333"/>
  <path d="M147 22.5H138V37.5H141V31.5H147V28.5H141V25.5H147V22.5Z" fill="#333333"/>
  <path d="M158 22.5H149V37.5H152V31.5H158V28.5H152V25.5H158V22.5Z" fill="#333333"/>
  <path d="M168 22.5H159V37.5H162V31.5H168V28.5H162V25.5H168V22.5Z" fill="#333333"/>
  <path d="M179 22.5H170V37.5H173V31.5H179V28.5H173V25.5H179V22.5Z" fill="#333333"/>
  <path d="M188 37.5L182 22.5H179L173 37.5H176L177 34.5H184L185 37.5H188ZM178 31.5L180.5 25.5L183 31.5H178Z" fill="#333333"/>
</svg>